{"title":"Transformers.Dark.Of.The.Moon 2011 BRRip x264 Feel-Free","uid":6699499,"size":2241986949,"categoryP":"video","categoryS":"movies","magnet":"?xt=urn:btih:d2ad79f380010ee64842d6bd00966f6d59043802&amp;dn=Transformers.Dark.Of.The.Moon+2011+BRRip+x264+Feel-Free&amp;tr=udp%3A%2F%2Ftracker.openbittorrent.com%3A80&amp;tr=udp%3A%2F%2Fopen.demonii.com%3A1337&amp;tr=udp%3A%2F%2Ftracker.coppersurfer.tk%3A6969&amp;tr=udp%3A%2F%2Fexodus.desync.com%3A6969","seeders":0,"leechers":0,"uploader":".BONE.","files":9,"time":1316907178,"description":"\nGenre:Action | Adventure | Sci-Fi\nLanguage:English\nIMDb:http://www.imdb.com/title/tt1399103/\nSource:Bluray.x264-MHD Thanks!\n\nFormat : MPEG-4\nFormat profile : Base Media\nCodec ID : isom\nFile size : 2.09 GiB\nDuration : 2h 34mn\nOverall bit rate : 1 934 Kbps\n\nVideo\nID : 1\nFormat : AVC\nFormat/Info : Advanced Video Codec\nFormat profile : &lt;a class=&quot;__cf_email__&quot; href=&quot;/cdn-cgi/l/email-protection&quot; data-cfemail=&quot;94dcfdf3fcd4d8a0baa5&quot;&gt;[email&amp;#160;protected]&lt;/a&gt;&lt;script data-cfhash='f9e31' type=&quot;text/javascript&quot;&gt;\n/* &lt;![CDATA[ */!function(){try{var t=&quot;currentScript&quot;in document?document.currentScript:function(){for(var t=document.getElementsByTagName(&quot;script&quot;),e=t.length;e--;)if(t[e].getAttribute(&quot;data-cfhash&quot;))return t[e]}();if(t&amp;&amp;t.previousSibling){var e,r,n,i,c=t.previousSibling,a=c.getAttribute(&quot;data-cfemail&quot;);if(a){for(e=&quot;&quot;,r=parseInt(a.substr(0,2),16),n=2;a.length-n;n+=2)i=parseInt(a.substr(n,2),16)^r,e+=String.fromCharCode(i);e=document.createTextNode(e),c.parentNode.replaceChild(e,c)}t.parentNode.removeChild(t);}}catch(u){}}()/* ]]&gt; */&lt;/script&gt;\nFormat settings, CABAC : Yes\nFormat settings, ReFrames : 3 frames\nCodec ID : avc1\nCodec ID/Info : Advanced Video Coding\nDuration : 2h 34mn\nBit rate mode : Variable\nBit rate : 1 500 Kbps\nMaximum bit rate : 6 364 Kbps\nWidth : 720 pixels\nHeight : 304 pixels\nDisplay aspect ratio : 2.35:1\nFrame rate mode : Constant\nFrame rate : 23.976 fps\nColor space : YUV\nChroma subsampling : 4:2:0\nBit depth : 8 bits\nScan type : Progressive\nBits/(Pixel*Frame) : 0.286\nStream size : 1.60 GiB (77%)\nWriting library : x264\n\nAudio\nID : 2\nFormat : AAC\nFormat/Info : Advanced Audio Codec\nFormat version : Version 4\nFormat profile : LC\nFormat settings, SBR : No\nCodec ID : 40\nDuration : 2h 34mn\nBit rate mode : Variable\nBit rate : 446 Kbps\nMaximum bit rate : 544 Kbps\nChannel(s) : 6 channels\nChannel positions : Front: L C R, Side: L R, LFE\nSampling rate : 48.0 KHz\nStream size : 492 MiB (23%)\n\n\nPlot:\nThe Autobots learn of a Cybertronian spacecraft hidden on the Moon, and race against the Decepticons to reach it and to learn its secrets.\n &lt;a href=&quot;\nhttp://www.pix2links.com/images/90851557368873087214.png&quot; rel=&quot;nofollow&quot; target=&quot;_NEW&quot;&gt;\nhttp://www.pix2links.com/images/90851557368873087214.png&lt;/a&gt;\n &lt;a href=&quot;\nhttp://www.pix2links.com/images/46284931214719579746.png&quot; rel=&quot;nofollow&quot; target=&quot;_NEW&quot;&gt;\nhttp://www.pix2links.com/images/46284931214719579746.png&lt;/a&gt;\n &lt;a href=&quot;\nhttp://www.pix2links.com/images/79877093044410908620.png&quot; rel=&quot;nofollow&quot; target=&quot;_NEW&quot;&gt;\nhttp://www.pix2links.com/images/79877093044410908620.png&lt;/a&gt;\n &lt;a href=&quot;\nhttp://www.pix2links.com/images/82627291366370403078.png&quot; rel=&quot;nofollow&quot; target=&quot;_NEW&quot;&gt;\nhttp://www.pix2links.com/images/82627291366370403078.png&lt;/a&gt;\n &lt;a href=&quot;\nhttp://www.pix2links.com/images/72678568583397536873.png&quot; rel=&quot;nofollow&quot; target=&quot;_NEW&quot;&gt;\nhttp://www.pix2links.com/images/72678568583397536873.png&lt;/a&gt;","torrent":{"xt":"urn:btih:d2ad79f380010ee64842d6bd00966f6d59043802","amp;dn":"Transformers.Dark.Of.The.Moon+2011+BRRip+x264+Feel-Free","amp;tr":["udp%3A%2F%2Ftracker.openbittorrent.com%3A80","udp%3A%2F%2Fopen.demonii.com%3A1337","udp%3A%2F%2Ftracker.coppersurfer.tk%3A6969","udp%3A%2F%2Fexodus.desync.com%3A6969"],"infoHash":"d2ad79f380010ee64842d6bd00966f6d59043802","infoHashBuffer":{"type":"Buffer","data":[210,173,121,243,128,1,14,230,72,66,214,189,0,150,111,109,89,4,56,2]},"announce":[],"urlList":[]}}